<?xml version="1.0" encoding="UTF-8"?>
<svg version="1.1" viewBox="0 0 1028 1028" width="1280" height="1280" xmlns="http://www.w3.org/2000/svg">
<path transform="translate(1027,73)" d="m0 0h1v92l-10 15-28 56-10 18-19 38-15 28-13 27-12 22-17 33-11 23-12 22-13 27-11 23-11 22-20 46-13 30-11 27-10 26-7 21-4 17v14l7 14v4l-4 1h-17l-10-3-8-6-3-5-1-4v-9l2-18 6-25 7-22 10-29 16-41 13-32 18-41 9-20 7-15 9-20 10-19 21-42 10-19 15-28 11-21 10-19 16-32 4-9-9 7-12 13-8 11-9 11-12 14-11 12-18 22-11 13-9 11-11 14-15 16-9 11-12 14-13 16-13 14-7 8-16 15-12 11-9 6-12 4h-14l-8-5-2-3-1-5v-11l5-16 12-27 15-36 16-37 15-34 17-44 6-16 1-6-6 3-10 10-11 14-9 11-13 16-12 15-13 17-8 10-10 13-14 19-10 13-8 12-13 18-8 12-14 19-13 17-12 17-13 16-6 8-14 17-7 9-10 13-14 18-11 14-11 13-8 10-8 7-7 3h-16l-5-3-3-6 1-7 37-74 10-19 13-28 13-27 28-63 32-64 18-42 11-27 5-16 2-11v-9l-1-2-7 1-10 6-14 12-8 8-8 7-18 18-7 8-10 12-8 13-7 15-4 13-1 27-1 2h-12l-5-3-6-7-3-8v-15l4-16 6-15 9-15 13-17 12-14 17-17 14-11 19-14 14-8 14-5 14-2 14 2 7 4 4 6 1 5v10l-3 17-10 29-8 20-17 37-13 28-18 38-15 32-9 20-13 28-5 16 5-2 13-17 11-15 13-18 10-15 10-13 13-18 12-19 10-13 8-10 11-15 7-9 11-13 12-16 14-17 9-11 12-14 14-15 8-8 14-11 12-5 10-2 14 1 8 4 5 6 2 9-4 18-6 15-16 38-12 26-7 14-13 30-16 36-9 24-1 7 4-2 17-17 11-14 9-10 7-8 9-10 7-8 14-18 11-12 9-11 11-13 11-14 11-13 12-16 9-11 21-28 11-14 14-18 9-13 10-13 13-16 18-24 14-19 13-16 10-10z" fill="#F2BC74"/>
<path transform="translate(342,93)" d="m0 0h13l19 2 16 4 14 7 12 11 6 8 4 12v20l-4 19-5 15-12 23-12 16-14 19-11 12-9 11-10 11-9 11-15 16-6 7-10 6-6 1-3-2 3-9 7-11 12-21 15-26 16-28 12-23 8-20 5-16 2-10v-22l-3-9-7-8-8-5-8-2h-13l-18 3-20 6-25 10-24 12-14 8-19 13-18 13-12 9-13 10-10 9-11 9-14 12-11 10-8 7-18 18-7 8-11 13-10 15-9 16-3 13v12l3 12 6 9 9 10 13 10 18 11 17 9 29 13 32 14 26 10 40 17 16 7 15 7 29 14 14 8 11 7 12 9 11 9 7 7 11 15 6 13 4 18v12l-4 20-6 18v2l6 3-1 3-14 8-10 9-12 12-7 8-16 16-11 9-17 13-26 16-18 10-19 9-25 10-22 7-30 8-17 3h-49l-10-3-8-5-5-5-2-4 1-6 6-9 7-7 13-9 15-9 23-11 32-13 37-13 23-9 40-13 40-10 15-4 10-7 7-8 7-13 3-12 1-7v-16l-2-12-7-14-9-11-11-10-14-10-24-13-38-18-43-18-34-14-24-9-30-13-29-14-19-10-16-11-11-9-7-6-7-8-7-10-6-12-1-6 1-16 5-16 9-17 12-16 11-13 15-16 24-24 8-7 26-22 14-11 15-11 14-10 27-18 26-15 28-13 26-10 26-8 30-5zm-35 558-35 10-29 10-35 15-33 15-20 10-17 11-11 9-8 8-1 3 8 2h17l25-4 23-7 22-9 25-12 18-10 15-10 14-11 8-7 7-8 9-13v-2z" fill="#F2BC74"/>
<path transform="translate(622,826)" d="m0 0h5l1 2v29l-1 53v61l-3 5-5 3-18 3-25 2-46 1-19 3-7 2-17 1-13-1-2-1h-37l-42 7h-6l-3-7v-141l4-6 6-4 16-4 18-1h30l15 3 7 3h22l11-2 12-4 19-3 17 1h27l10-1 3-2z" fill="#CE3725"/>
<path transform="translate(622,826)" d="m0 0h5l1 2v29l-1 49-1-2-16 1-2 2-5 1-14 1h-56l-12 3h-8l-2 4-12 2-11 2-7-1-14-6v-2l-2-1h2l-1-13v-58l1-3-2-1 10 2 5 2h22l11-2 12-4 19-3 17 1h27l10-1 3-2z" fill="#FCFCFA"/>
<path transform="translate(428,833)" d="m0 0h30l9 3v74h-11l-44 7-27 3-1-11v-61l4-6 6-4 16-4z" fill="#0C3D99"/>
<path transform="translate(475,760)" d="m0 0h9l3 3 3 10 5 2 3-14 8-1 3 2v13l-1 16h-7l-2-4-2 4h-10l-1-5-2 3-1 2h-7z" fill="#DFDDDC"/>
<path transform="translate(404,759)" d="m0 0 16 1 1 1 1 12 1 3v13l-4 3h-20l-3-2v-30zm4 6-2 2v3h5l-1-5zm0 13-3 3 2 4 6 1 2-1v-5z" fill="#E8E4E2"/>
<path transform="translate(382,759)" d="m0 0 7 1v24l-3 7-5 2h-14l-5-5-2-6-1-18 1-4h11v20l2 5h5l1-2v-23z" fill="#D2D4DB"/>
<path transform="translate(333,760)" d="m0 0h18l2 3v6l-12-3 5 5 7 3 3 6v6l-5 6-2 1h-12l-8-4-2-3v-5l9 2 2 1h6l1-2-9-2-5-4-3-5 2-9z" fill="#EDE6E0"/>
<path transform="translate(600,760)" d="m0 0h6l2 1 1 25 7-1 1-2v-22h7l2 2v10l-2 16-1 2-3 1h-14l-5-4-2-4v-23z" fill="#E8E6E4"/>
<path transform="translate(527,760)" d="m0 0 7 1 3 3 6 22 1 5h-6l-7-7h-5l-3 6-1 1h-5l-1-1 1-9 6-19z" fill="#E8E5E4"/>
<path transform="translate(568,759)" d="m0 0h19l5 2v16l-2 2-6 1h-8l-1 10-3 1-3-1-1-8zm8 7v7l2 2 5-1 1-5-2-3z" fill="#E6E8EC"/>
<path transform="translate(424,856)" d="m0 0h3l3 10h6l1-1h5l-1 5-3 3-3 13-6-1-5-1-4 4h-4v-10l-5-3 1-4 8-4 3-1z" fill="#FCFAF7"/>
<path transform="translate(429,760)" d="m0 0h8l2 1 1 25h9l2 1-1 5h-19l-2-2z" fill="#D6D5D7"/>
<path transform="translate(501,760)" d="m0 0 7 1 1 1v13l-1 16h-7l-2-15-1-2-1-10 1-3z" fill="#EEEAE6"/>
<path transform="translate(459,760)" d="m0 0h9l1 4-1 27h-9z" fill="#D0D7E5"/>
<path transform="translate(551,760)" d="m0 0h9v30l-1 1h-6l-2-2z" fill="#EDE6DE"/>
<path transform="translate(445,984)" d="m0 0h16l5 2v2l-31 1-42 7h-6v-2l34-6z" fill="#114099"/>
<path transform="translate(330,763)" d="m0 0h1l2 12 8 3 6 2 1 4-3 3-9-1-8-4 2-1 8 3h6l1-2-9-2-5-4-3-5 1-7z" fill="#174497"/>
<path transform="translate(769,434)" d="m0 0v3l-11 12-13 12-7 7-4 3-2-1 15-15 8-7z" fill="#D55034"/>
<path transform="translate(115,426)" d="m0 0 9 3 44 18 3 2-6-1-19-7-30-13z" fill="#D75638"/>
<path transform="translate(312,647)" d="m0 0h3l-1 4-12 15-2-1 9-14-6 2-4-1z" fill="#224895"/>
<path transform="translate(734,410)" d="m0 0 1 3-4 12v3l4-2 6-6 2 1-10 11h-6l1-8z" fill="#D65235"/>
<path transform="translate(405,776)" d="m0 0 11 1v9l-1 1h-8l-3-3v-7zm3 2-3 3 2 4 6 1 2-1v-5z" fill="#2C4F94"/>
<path transform="translate(405,764)" d="m0 0h8l2 3-1 5h-8l-2-1v-6zm3 1-2 2v3h5l-1-5z" fill="#1E4796"/>
<path transform="translate(337,764)" d="m0 0h7l2 2h-5l5 5 7 3-1 2-10-4-4-1z" fill="#1B4697"/>
<path transform="translate(410,990)" d="m0 0m-6 1h6v2l-17 3h-6v-2z" fill="#1C4697"/>
<path transform="translate(360,760)" d="m0 0 2 2 1 26-2-2-1-4-1-18z" fill="#1C4697"/>
<path transform="translate(547,469)" d="m0 0 1 3-1 4 6-2-2 5-3 4h-4v-7z" fill="#A94143"/>
<path transform="translate(577,763)" d="m0 0 6 1 2 3v6l-3-6-6-1 1 7 5 2v1h-5l-2-2v-9z" fill="#1F4896"/>
<path transform="translate(529,767)" d="m0 0h2l1 14-4-1v-9z" fill="#0B3D9A"/>
<path transform="translate(484,774)" d="m0 0 3 4 1 2v8l-4-2z" fill="#114098"/>
<path transform="translate(330,763)" d="m0 0h1l2 12v3l-5-7 1-7z" fill="#3C5891"/>
<path transform="translate(356,272)" d="m0 0v3l-10 12h-2l2-4z" fill="#D54E33"/>
<path transform="translate(747,455)" d="m0 0m-1 1m-1 1m-1 1m-1 1m-1 1 1 3-9 8-2-1z" fill="#D44B31"/>
<path transform="translate(498,777)" d="m0 0 2 1 1 8-4 3v-7z" fill="#134198"/>
</svg>
